<?xml version="1.0" encoding="UTF-8"?>
<svg xmlns="http://www.w3.org/2000/svg" width="88" height="44" viewBox="0 0 88 44" fill="none">
  <path opacity="0.992" fill-rule="evenodd" clip-rule="evenodd" d="M42.6618 2.3125C42.6988 2.31274 42.727 2.32881 42.747 2.36046C44.016 3.84351 45.2906 5.32224 46.571 6.79642C46.4587 11.1374 46.3286 15.4775 46.1813 19.8166C44.8904 18.322 43.5995 16.8272 42.3086 15.3327C42.4204 10.9926 42.5383 6.65255 42.6618 2.3125Z" fill="#050505"></path>
  <path opacity="0.994" fill-rule="evenodd" clip-rule="evenodd" d="M67.7699 5.81403C73.794 5.80996 79.8183 5.81403 85.8424 5.82602C84.3567 7.14482 82.8709 8.46362 81.3852 9.78242C77.2853 9.79441 73.1851 9.79849 69.0852 9.79441C69.0852 15.4132 69.0852 21.0323 69.0852 26.6511C67.6562 26.6511 66.2274 26.6511 64.7984 26.6511C64.7943 20.5846 64.7984 14.5181 64.8106 8.45163C65.7966 7.56924 66.783 6.68996 67.7699 5.81403Z" fill="#FF0000"></path>
  <path opacity="0.995" fill-rule="evenodd" clip-rule="evenodd" d="M2.375 5.93804C3.56844 5.92198 4.76598 5.91406 5.96758 5.91406C13.7982 5.94092 21.6288 5.97305 29.4594 6.00998C28.0022 7.29665 26.5408 8.57948 25.0752 9.85848C18.9781 9.87454 12.8808 9.87454 6.78352 9.85848C5.30988 8.5555 3.84038 7.24869 2.375 5.93804Z" fill="#FF0000"></path>
  <path opacity="0.994" fill-rule="evenodd" clip-rule="evenodd" d="M13.75 11.832C15.1789 11.832 16.6078 11.832 18.0367 11.832C18.0367 16.7476 18.0367 21.6631 18.0367 26.5786C16.6078 26.5786 15.1789 26.5786 13.75 26.5786C13.75 21.6631 13.75 16.7476 13.75 11.832Z" fill="#FF0000"></path>
  <path opacity="0.99" fill-rule="evenodd" clip-rule="evenodd" d="M74.1778 13.2725C77.4336 13.2646 80.689 13.2725 83.9448 13.2965C82.46 14.611 80.9743 15.9259 79.4875 17.2409C76.2157 17.257 72.9437 17.257 69.6719 17.2409C71.1786 15.9214 72.6806 14.5985 74.1778 13.2725Z" fill="#FF0000"></path>
  <path opacity="0.991" fill-rule="evenodd" clip-rule="evenodd" d="M43.0241 18.4063C43.0484 18.4056 43.0645 18.4176 43.0728 18.4422C42.411 20.2687 41.7495 22.0948 41.0877 23.9213C41.0687 23.9642 41.0402 24.0002 41.0025 24.0292C37.1481 26.0762 33.2958 28.1263 29.4453 30.1796C30.0915 28.2997 30.7693 26.4294 31.4791 24.5687C35.3367 22.526 39.185 20.472 43.0241 18.4063Z" fill="#050505"></path>
  <path opacity="0.991" fill-rule="evenodd" clip-rule="evenodd" d="M49.0193 21.3047C52.7806 23.5725 56.5396 25.8464 60.2963 28.1265C58.3342 28.4929 56.3696 28.8485 54.4021 29.1935C54.3136 29.1746 54.2323 29.1386 54.1585 29.0856C50.4807 26.8516 46.8028 24.6178 43.125 22.3837C45.0925 22.0236 47.0574 21.6639 49.0193 21.3047Z" fill="#050505"></path>
  <path opacity="0.989" fill-rule="evenodd" clip-rule="evenodd" d="M44.875 35.3058C48.1509 35.2801 51.431 35.2839 54.715 35.3178C54.1828 35.7757 53.655 36.2392 53.1319 36.7085C50.9154 36.7246 48.699 36.7246 46.4825 36.7085C45.9425 36.2447 45.4067 35.7772 44.875 35.3058Z" fill="#050505"></path>
  <path opacity="0.985" fill-rule="evenodd" clip-rule="evenodd" d="M2.375 35.3086C2.91084 35.3086 3.44669 35.3086 3.98253 35.3086C3.98253 37.4187 3.98253 39.5288 3.98253 41.6388C3.44669 41.6388 2.91084 41.6388 2.375 41.6388C2.375 39.5288 2.375 37.4187 2.375 35.3086Z" fill="#050505"></path>
  <path opacity="0.99" fill-rule="evenodd" clip-rule="evenodd" d="M6.97656 35.3062C7.51248 35.3021 8.04832 35.3062 8.58409 35.3182C9.94333 36.6804 11.3113 38.0352 12.6882 39.3825C12.7003 38.0237 12.7044 36.6651 12.7003 35.3062C13.2443 35.3062 13.7883 35.3062 14.3322 35.3062C14.3322 37.4163 14.3322 39.5264 14.3322 41.6365C13.7882 41.6405 13.2442 41.6365 12.7003 41.6245C11.3235 40.2771 9.95551 38.9224 8.59627 37.5602C8.58409 38.919 8.58002 40.2776 8.58409 41.6365C8.04825 41.6365 7.51241 41.6365 6.97656 41.6365C6.97656 39.5264 6.97656 37.4163 6.97656 35.3062Z" fill="#050505"></path>
  <path opacity="0.986" fill-rule="evenodd" clip-rule="evenodd" d="M16.9168 35.3062C18.8003 35.3021 20.684 35.3062 22.5675 35.3182C23.6175 35.3973 24.2791 35.9368 24.5526 36.9367C24.5923 37.911 24.6006 38.8862 24.5769 39.8621C24.4593 40.522 24.1142 41.0296 23.5418 41.3847C23.2904 41.5178 23.0225 41.5976 22.738 41.6245C20.7732 41.6365 18.8086 41.6405 16.8438 41.6365C16.8438 40.3817 16.8438 39.1267 16.8438 37.8719C16.9012 37.8681 16.958 37.8719 17.0142 37.8839C17.4912 38.1726 17.9661 38.4644 18.4391 38.7591C18.4513 39.2386 18.4554 39.7182 18.4513 40.1978C19.6854 40.2018 20.9193 40.1978 22.1535 40.1858C22.5877 40.1179 22.8596 39.8743 22.9694 39.4544C22.993 38.7579 22.9848 38.0625 22.9451 37.3683C22.8337 37.059 22.6187 36.8552 22.2996 36.7569C21.2613 36.7257 20.222 36.7097 19.182 36.7089C18.4576 36.2598 17.7269 35.8203 16.9899 35.3901C16.9518 35.3719 16.9275 35.3439 16.9168 35.3062Z" fill="#050505"></path>
  <path opacity="0.989" fill-rule="evenodd" clip-rule="evenodd" d="M27.2672 35.3086C27.803 35.3086 28.3389 35.3086 28.8747 35.3086C28.8706 36.6754 28.8747 38.0421 28.8869 39.4089C28.9741 39.8544 29.2461 40.1141 29.7028 40.1882C30.064 40.1922 30.4255 40.1961 30.7867 40.2001C31.1976 40.203 31.6075 40.191 32.0167 40.1642C32.3806 40.0697 32.6039 39.8419 32.6865 39.4808C32.6987 38.0901 32.7028 36.6993 32.6987 35.3086C33.2345 35.3086 33.7704 35.3086 34.3062 35.3086C34.3103 36.8271 34.3062 38.3459 34.294 39.8645C34.1764 40.5243 33.8313 41.032 33.2589 41.3871C33.0075 41.5201 32.7396 41.6 32.4551 41.6269C31.3428 41.6429 30.2306 41.6429 29.1183 41.6269C28.0897 41.4616 27.4769 40.8742 27.2794 39.8645C27.2672 38.3459 27.263 36.8271 27.2672 35.3086Z" fill="#050505"></path>
  <path opacity="0.98" fill-rule="evenodd" clip-rule="evenodd" d="M38.5701 35.3077C40.2426 35.2997 41.9152 35.3077 43.5875 35.3316C43.4314 35.7846 43.2852 36.2402 43.1491 36.6984C41.0381 36.6984 38.9274 36.6984 36.8164 36.6984C37.0673 35.8239 37.6518 35.3604 38.5701 35.3077Z" fill="#050505"></path>
  <path opacity="0.982" fill-rule="evenodd" clip-rule="evenodd" d="M55.8398 35.3062C57.6585 35.3021 59.477 35.3062 61.2957 35.3182C62.2575 35.3858 62.8706 35.8774 63.1346 36.7929C63.3261 37.7537 63.0216 38.5169 62.2212 39.0828C61.8074 39.2835 61.369 39.3712 60.906 39.3465C61.6774 40.1059 62.4485 40.8651 63.2199 41.6245C62.4811 41.6405 61.7422 41.6405 61.0034 41.6245C59.8947 40.4412 58.7906 39.2542 57.6909 38.0637C58.853 38.0512 60.0141 38.0313 61.1739 38.0038C61.5305 37.8223 61.6564 37.5386 61.5514 37.1525C61.4696 36.9439 61.3193 36.8121 61.1008 36.7569C59.3472 36.7449 57.5935 36.7408 55.8398 36.7449C55.8398 36.2653 55.8398 35.7858 55.8398 35.3062Z" fill="#050505"></path>
  <path opacity="0.985" fill-rule="evenodd" clip-rule="evenodd" d="M65.8008 35.3086C66.3366 35.3086 66.8725 35.3086 67.4083 35.3086C67.4083 37.4187 67.4083 39.5288 67.4083 41.6388C66.8725 41.6388 66.3366 41.6388 65.8008 41.6388C65.8008 39.5288 65.8008 37.4187 65.8008 35.3086Z" fill="#050505"></path>
  <path opacity="0.986" fill-rule="evenodd" clip-rule="evenodd" d="M70.1094 35.3545C72.4802 35.3466 74.8509 35.3545 77.2215 35.3785C76.6988 35.8329 76.1793 36.2926 75.6627 36.7573C74.3394 36.7692 73.0158 36.7733 71.6925 36.7692C71.6884 37.4167 71.6925 38.0641 71.7047 38.7115C72.0832 38.3628 72.4688 38.0233 72.8617 37.6924C74.0795 37.6725 75.2973 37.6763 76.5151 37.7044C75.9722 38.1878 75.4281 38.6712 74.8832 39.1551C73.8196 39.1671 72.7562 39.1711 71.6925 39.1671C71.6925 39.5188 71.6925 39.8703 71.6925 40.2221C73.3651 40.2221 75.0374 40.2221 76.71 40.2221C76.5797 40.7036 76.4416 41.1831 76.2959 41.6608C74.2337 41.6608 72.1716 41.6608 70.1094 41.6608C70.1094 39.5586 70.1094 37.4567 70.1094 35.3545Z" fill="#050505"></path>
  <path opacity="0.995" fill-rule="evenodd" clip-rule="evenodd" d="M80.0999 35.3789C81.8536 35.3789 83.6073 35.3789 85.3609 35.3789C85.2267 35.8357 85.0886 36.2913 84.9469 36.7457C82.8279 36.7497 80.7089 36.7457 78.5898 36.7337C78.8205 35.9829 79.3239 35.5312 80.0999 35.3789Z" fill="#050505"></path>
  <path opacity="0.982" fill-rule="evenodd" clip-rule="evenodd" d="M36.793 37.6343C38.579 37.6303 40.3653 37.6343 42.1514 37.6463C43.0285 37.7104 43.6091 38.154 43.8929 38.9771C44.1496 39.9533 43.8775 40.7486 43.0769 41.363C42.8353 41.5035 42.5754 41.5915 42.2975 41.6267C40.4708 41.6387 38.6441 41.6428 36.8173 41.6387C36.9562 41.1766 37.1023 40.7172 37.2557 40.26C38.8713 40.252 40.4871 40.2439 42.1027 40.236C42.4831 40.0446 42.5767 39.7607 42.3828 39.3848C42.3022 39.2711 42.1926 39.2032 42.054 39.1809C40.8198 39.173 39.5859 39.1649 38.3518 39.157C37.6442 39.0359 37.153 38.6484 36.8782 37.994C36.8305 37.8782 36.8022 37.7583 36.793 37.6343Z" fill="#050505"></path>
  <path opacity="0.989" fill-rule="evenodd" clip-rule="evenodd" d="M78.5625 37.7315C80.4258 37.7034 82.2932 37.6996 84.1645 37.7195C84.9383 37.8658 85.4459 38.3094 85.6868 39.0503C85.9225 39.9763 85.6748 40.7477 84.9439 41.3642C84.7008 41.5277 84.4329 41.6316 84.1401 41.6759C82.2971 41.6879 80.4543 41.692 78.6112 41.6879C78.7403 41.223 78.8864 40.7635 79.0496 40.3092C80.6652 40.3012 82.281 40.2931 83.8966 40.2852C84.2312 40.126 84.3408 39.8742 84.2254 39.5299C84.147 39.3575 84.013 39.2575 83.8235 39.2301C82.5813 39.2222 81.3391 39.2141 80.097 39.2062C79.5146 39.1122 79.0803 38.8124 78.7939 38.307C78.695 38.1207 78.6178 37.9288 78.5625 37.7315Z" fill="#050505"></path>
  <path opacity="0.989" fill-rule="evenodd" clip-rule="evenodd" d="M48.918 37.8516C49.4538 37.8516 49.9897 37.8516 50.5255 37.8516C50.5255 39.1145 50.5255 40.3772 50.5255 41.6401C49.9897 41.6401 49.4538 41.6401 48.918 41.6401C48.918 40.3772 48.918 39.1145 48.918 37.8516Z" fill="#050505"></path>
  <path opacity="0.983" fill-rule="evenodd" clip-rule="evenodd" d="M55.8398 38.0664C56.3837 38.0664 56.9278 38.0664 57.4717 38.0664C57.4717 39.2574 57.4717 40.4482 57.4717 41.6392C56.9278 41.6392 56.3837 41.6392 55.8398 41.6392C55.8398 40.4482 55.8398 39.2574 55.8398 38.0664Z" fill="#050505"></path>
</svg>
