<?xml version="1.0" encoding="UTF-8"?>
<svg xmlns="http://www.w3.org/2000/svg" width="748" height="253" viewBox="0 0 748 253" fill="none">
  <g opacity="0.08" clip-path="url(#clip0_4001_428)">
    <path opacity="0.985" fill-rule="evenodd" clip-rule="evenodd" d="M356.299 3.87891C356.948 3.88315 357.448 4.16779 357.798 4.72856C368.789 17.6136 379.776 30.5029 390.768 43.388C389.942 81.9115 388.803 120.431 387.342 158.941C375.965 145.852 364.69 132.683 353.516 119.432C354.174 80.9089 355.102 42.3939 356.299 3.87891Z" fill="white"></path>
    <path opacity="0.993" fill-rule="evenodd" clip-rule="evenodd" d="M576.82 36.5896C629.915 36.5174 683.011 36.5896 736.106 36.8021C723.247 48.5698 710.256 60.1846 697.141 71.638C661.032 71.8504 624.918 71.9227 588.809 71.8504C588.809 121.696 588.809 171.545 588.809 221.39C576.251 221.39 563.688 221.39 551.129 221.39C551.056 167.437 551.129 113.484 551.343 59.5304C559.92 51.9387 568.411 44.2918 576.82 36.5896Z" fill="white"></path>
    <path opacity="0.989" fill-rule="evenodd" clip-rule="evenodd" d="M2.19141 38.7128C81.6219 38.305 161.122 38.5174 240.692 39.3501C227.784 50.778 214.796 62.1082 201.727 73.3364C148.061 73.621 94.3943 73.621 40.7283 73.3364C27.9379 61.7088 15.0923 50.1662 2.19141 38.7128Z" fill="white"></path>
    <path opacity="0.983" fill-rule="evenodd" clip-rule="evenodd" d="M101.957 90.543C114.66 90.543 127.363 90.543 140.066 90.543C140.066 134.16 140.066 177.773 140.066 221.39C127.363 221.39 114.66 221.39 101.957 221.39C101.957 177.773 101.957 134.16 101.957 90.543Z" fill="white"></path>
    <path opacity="0.989" fill-rule="evenodd" clip-rule="evenodd" d="M632.91 102.863C661.74 102.791 690.574 102.863 719.404 103.076C706.499 114.788 693.507 126.399 680.439 137.911C651.605 138.264 622.775 138.196 593.945 137.699C606.941 126.076 619.932 114.465 632.91 102.863Z" fill="white"></path>
    <path opacity="0.983" fill-rule="evenodd" clip-rule="evenodd" d="M359.725 146.199C359.98 146.301 360.123 146.514 360.153 146.836C354.346 163.558 348.208 180.126 341.741 196.541C308.417 214.278 275.16 232.121 241.973 250.07C241.312 250.575 240.598 250.716 239.832 250.495C245.801 233.863 251.938 217.294 258.244 200.79C292.097 182.582 325.924 164.382 359.725 146.199Z" fill="white"></path>
    <path opacity="0.983" fill-rule="evenodd" clip-rule="evenodd" d="M411.111 172.115C411.838 172.047 412.554 172.119 413.252 172.327C445.935 192.366 478.623 212.401 511.306 232.44C510.249 233.035 509.106 233.388 507.881 233.502C491.481 236.57 475.069 239.399 458.639 241.999C425.81 221.892 392.985 201.78 360.156 181.673C377.211 178.559 394.197 175.373 411.111 172.115Z" fill="white"></path>
  </g>
  <defs>
    <clipPath id="clip0_4001_428">
      <rect width="748" height="253" fill="white"></rect>
    </clipPath>
  </defs>
</svg>
