<?xml version="1.0" encoding="UTF-8"?>
<svg xmlns="http://www.w3.org/2000/svg" width="24" height="24" viewBox="0 0 24 24" fill="none">
  <path d="M24.0014 11.647C24.0014 11.2745 23.6873 10.9717 23.2985 10.9717H20.3201C19.9786 10.9717 19.6813 10.7365 19.6299 10.4125C19.4796 9.46561 19.1592 8.57224 18.6959 7.76367L17.6484 8.77009C18.0802 9.64226 18.3292 10.6144 18.3292 11.646C18.3292 12.6777 18.0802 13.6498 17.6484 14.522L18.6959 15.5284C19.1592 14.7198 19.4796 13.8275 19.6299 12.8796C19.6813 12.5555 19.9786 12.3203 20.3201 12.3203H23.2985C23.6862 12.3203 24.0014 12.0185 24.0014 11.645V11.647Z" fill="white"></path>
  <path d="M14.6158 17.6484C13.823 18.0802 12.9394 18.3292 12.0016 18.3292C11.0639 18.3292 10.1802 18.0802 9.38747 17.6484L8.47266 18.6959C9.20763 19.1592 10.0188 19.4796 10.8803 19.6298C11.1749 19.6813 11.3887 19.9786 11.3887 20.3201V23.2985C11.3887 23.6862 11.663 24.0014 12.0025 24.0014C12.342 24.0014 12.6164 23.6873 12.6164 23.2985V20.3201C12.6164 19.9786 12.8302 19.6813 13.1247 19.6298C13.9854 19.4796 14.7974 19.1592 15.5315 18.6959L14.6167 17.6484H14.6158Z" fill="white"></path>
  <path d="M5.64706 14.5202C5.26318 13.6483 5.04182 12.6764 5.04182 11.645C5.04182 10.6126 5.26318 9.64177 5.64706 8.76983L4.71585 7.76367C4.30395 8.57203 4.01999 9.46517 3.88549 10.4118C3.83973 10.7357 3.57542 10.9709 3.27186 10.9709H0.624852C0.280199 10.9709 0 11.2726 0 11.646C0 12.0194 0.279265 12.3212 0.624852 12.3212H3.27186C3.57542 12.3212 3.83973 12.5563 3.88549 12.8803C4.01906 13.8279 4.30395 14.72 4.71585 15.5284L5.64706 14.5222V14.5202Z" fill="white"></path>
  <path d="M9.38838 5.64706C10.1812 5.26318 11.0648 5.04182 12.0025 5.04182C12.9403 5.04182 13.8239 5.26318 14.6167 5.64706L15.5315 4.71585C14.7965 4.30395 13.9854 4.01999 13.1247 3.88549C12.8302 3.83973 12.6164 3.57542 12.6164 3.27186V0.624852C12.6164 0.280199 12.342 0 12.0025 0C11.663 0 11.3887 0.279265 11.3887 0.624852V3.27186C11.3887 3.57542 11.1749 3.83973 10.8803 3.88549C10.0188 4.01999 9.20763 4.30395 8.47266 4.71585L9.38747 5.64706H9.38838Z" fill="white"></path>
</svg>
