<?xml version="1.0" encoding="UTF-8"?>
<svg xmlns="http://www.w3.org/2000/svg" width="192" height="97" viewBox="0 0 192 97" fill="none">
  <path opacity="0.992" fill-rule="evenodd" clip-rule="evenodd" d="M94.0367 3.01172C94.1195 3.01226 94.1828 3.04833 94.2275 3.11938C97.0681 6.44895 99.9213 9.76882 102.787 13.0785C102.536 22.8244 102.245 32.5681 101.915 42.3097C99.0255 38.9543 96.1358 35.5984 93.2461 32.243C93.4964 22.4992 93.7602 12.7555 94.0367 3.01172Z" fill="#F5F5F5"></path>
  <path opacity="0.994" fill-rule="evenodd" clip-rule="evenodd" d="M150.249 10.8706C163.734 10.8615 177.22 10.8706 190.705 10.8975C187.379 13.8584 184.053 16.8192 180.727 19.78C171.549 19.8069 162.371 19.816 153.193 19.8069C153.193 32.4215 153.193 45.0367 153.193 57.6514C149.994 57.6514 146.796 57.6514 143.597 57.6514C143.588 44.0317 143.597 30.412 143.624 16.7922C145.832 14.8112 148.04 12.8371 150.249 10.8706Z" fill="#FF0000"></path>
  <path opacity="0.995" fill-rule="evenodd" clip-rule="evenodd" d="M3.85938 11.1398C6.53091 11.1037 9.21161 11.0859 11.9014 11.0859C29.4304 11.1462 46.9593 11.2184 64.4882 11.3013C61.2261 14.1899 57.9548 17.07 54.6742 19.9414C41.0256 19.9775 27.3766 19.9775 13.7279 19.9414C10.4291 17.0162 7.13966 14.0823 3.85938 11.1398Z" fill="#FF0000"></path>
  <path opacity="0.994" fill-rule="evenodd" clip-rule="evenodd" d="M29.3203 24.3828C32.519 24.3828 35.7176 24.3828 38.9162 24.3828C38.9162 35.4185 38.9162 46.4543 38.9162 57.49C35.7176 57.49 32.519 57.49 29.3203 57.49C29.3203 46.4543 29.3203 35.4185 29.3203 24.3828Z" fill="#FF0000"></path>
  <path opacity="0.99" fill-rule="evenodd" clip-rule="evenodd" d="M164.587 27.6121C171.875 27.5944 179.162 27.6121 186.45 27.666C183.126 30.6171 179.801 33.5693 176.472 36.5215C169.149 36.5575 161.824 36.5575 154.5 36.5215C157.873 33.559 161.235 30.5891 164.587 27.6121Z" fill="#FF0000"></path>
  <path opacity="0.991" fill-rule="evenodd" clip-rule="evenodd" d="M94.8532 39.1329C94.9077 39.1313 94.9437 39.1582 94.9623 39.2136C93.4809 43.3141 92.0001 47.414 90.5187 51.5144C90.4762 51.6108 90.4124 51.6915 90.3279 51.7567C81.6997 56.3524 73.0765 60.9551 64.457 65.5648C65.9035 61.3443 67.4209 57.1454 69.0096 52.9679C77.6449 48.3819 86.2594 43.7706 94.8532 39.1329Z" fill="#F5F5F5"></path>
  <path opacity="0.991" fill-rule="evenodd" clip-rule="evenodd" d="M108.269 45.6445C116.688 50.736 125.103 55.841 133.512 60.96C129.12 61.7825 124.722 62.5809 120.318 63.3555C120.12 63.313 119.938 63.2323 119.773 63.1133C111.54 58.0977 103.307 53.0826 95.0742 48.067C99.4785 47.2584 103.877 46.4509 108.269 45.6445Z" fill="#F5F5F5"></path>
  <path opacity="0.989" fill-rule="evenodd" clip-rule="evenodd" d="M99 77.0844C106.333 77.0268 113.676 77.0354 121.027 77.1113C119.836 78.1395 118.654 79.1801 117.483 80.2336C112.522 80.2697 107.56 80.2697 102.598 80.2336C101.39 79.1925 100.19 78.1427 99 77.0844Z" fill="#F5F5F5"></path>
  <path opacity="0.985" fill-rule="evenodd" clip-rule="evenodd" d="M3.85938 77.0859C5.05887 77.0859 6.25836 77.0859 7.45785 77.0859C7.45785 81.8232 7.45785 86.5605 7.45785 91.2978C6.25836 91.2978 5.05887 91.2978 3.85938 91.2978C3.85938 86.5605 3.85938 81.8232 3.85938 77.0859Z" fill="#F5F5F5"></path>
  <path opacity="0.99" fill-rule="evenodd" clip-rule="evenodd" d="M14.1602 77.0855C15.3598 77.0763 16.5593 77.0855 17.7586 77.1124C20.8013 80.1706 23.8636 83.2122 26.9456 86.2371C26.9729 83.1863 26.982 80.1362 26.9729 77.0855C28.1905 77.0855 29.4082 77.0855 30.6259 77.0855C30.6259 81.8228 30.6259 86.5601 30.6259 91.2973C29.4081 91.3065 28.1904 91.2973 26.9729 91.2704C23.8909 88.2456 20.8286 85.204 17.7859 82.1458C17.7586 85.1965 17.7495 88.2466 17.7586 91.2973C16.5591 91.2973 15.3596 91.2973 14.1602 91.2973C14.1602 86.5601 14.1602 81.8228 14.1602 77.0855Z" fill="#F5F5F5"></path>
  <path opacity="0.986" fill-rule="evenodd" clip-rule="evenodd" d="M36.4058 77.0855C40.622 77.0763 44.8387 77.0855 49.0549 77.1124C51.4054 77.29 52.8862 78.5013 53.4985 80.7461C53.5874 82.9333 53.6059 85.1227 53.553 87.3137C53.2897 88.7952 52.5171 89.9348 51.2358 90.7321C50.6732 91.0309 50.0734 91.2101 49.4366 91.2704C45.0383 91.2973 40.6405 91.3065 36.2422 91.2973C36.2422 88.4803 36.2422 85.6627 36.2422 82.8456C36.3707 82.837 36.4979 82.8456 36.6238 82.8725C37.6916 83.5207 38.7546 84.1758 39.8134 84.8374C39.8407 85.9141 39.8499 86.9907 39.8407 88.0674C42.6033 88.0765 45.3654 88.0674 48.128 88.0405C49.1002 87.8881 49.7087 87.3412 49.9545 86.3986C50.0074 84.8347 49.9889 83.2736 49.9 81.7151C49.6509 81.0207 49.1694 80.5631 48.4552 80.3424C46.1309 80.2724 43.8044 80.2363 41.4763 80.2347C39.8548 79.2264 38.2192 78.2396 36.5693 77.2739C36.4841 77.233 36.4296 77.17 36.4058 77.0855Z" fill="#F5F5F5"></path>
  <path opacity="0.989" fill-rule="evenodd" clip-rule="evenodd" d="M59.5816 77.0859C60.7811 77.0859 61.9806 77.0859 63.1801 77.0859C63.1708 80.1544 63.1801 83.2229 63.2073 86.2914C63.4025 87.2916 64.0115 87.8746 65.0338 88.0409C65.8424 88.0501 66.6515 88.0587 67.4601 88.0678C68.3799 88.0743 69.2975 88.0474 70.2135 87.9871C71.028 87.775 71.528 87.2636 71.7128 86.4529C71.7401 83.3305 71.7494 80.2082 71.7401 77.0859C72.9396 77.0859 74.1391 77.0859 75.3386 77.0859C75.3478 80.4952 75.3386 83.9049 75.3113 87.3142C75.048 88.7957 74.2754 89.9353 72.9941 90.7326C72.4314 91.0313 71.8317 91.2106 71.1949 91.2709C68.7048 91.307 66.2153 91.307 63.7253 91.2709C61.4228 90.9 60.051 89.5811 59.6089 87.3142C59.5816 83.9049 59.5723 80.4952 59.5816 77.0859Z" fill="#F5F5F5"></path>
  <path opacity="0.98" fill-rule="evenodd" clip-rule="evenodd" d="M84.8787 77.0809C88.6228 77.0631 92.3668 77.0809 96.1103 77.1347C95.7608 78.1516 95.4337 79.1744 95.1289 80.2032C90.4035 80.2032 85.6786 80.2032 80.9531 80.2032C81.5147 78.2399 82.8232 77.1993 84.8787 77.0809Z" fill="#F5F5F5"></path>
  <path opacity="0.982" fill-rule="evenodd" clip-rule="evenodd" d="M123.535 77.0855C127.606 77.0763 131.677 77.0855 135.748 77.1124C137.901 77.2642 139.274 78.3678 139.865 80.4231C140.293 82.5802 139.612 84.2937 137.82 85.5641C136.894 86.0147 135.912 86.2118 134.876 86.1563C136.603 87.8612 138.329 89.5655 140.055 91.2704C138.402 91.3065 136.748 91.3065 135.094 91.2704C132.612 88.6138 130.141 85.9491 127.679 83.2762C130.28 83.2483 132.879 83.2036 135.476 83.1417C136.274 82.7342 136.556 82.0973 136.321 81.2306C136.137 80.7623 135.801 80.4662 135.312 80.3424C131.386 80.3154 127.461 80.3063 123.535 80.3154C123.535 79.2388 123.535 78.1621 123.535 77.0855Z" fill="#F5F5F5"></path>
  <path opacity="0.985" fill-rule="evenodd" clip-rule="evenodd" d="M145.832 77.0859C147.032 77.0859 148.231 77.0859 149.431 77.0859C149.431 81.8232 149.431 86.5605 149.431 91.2978C148.231 91.2978 147.032 91.2978 145.832 91.2978C145.832 86.5605 145.832 81.8232 145.832 77.0859Z" fill="#F5F5F5"></path>
  <path opacity="0.986" fill-rule="evenodd" clip-rule="evenodd" d="M155.484 77.1942C160.792 77.1764 166.098 77.1942 171.405 77.248C170.235 78.2681 169.072 79.3001 167.915 80.3434C164.953 80.3703 161.991 80.3794 159.028 80.3703C159.019 81.8238 159.028 83.2773 159.056 84.7308C159.903 83.948 160.766 83.1857 161.645 82.4429C164.372 82.3982 167.098 82.4068 169.824 82.4698C168.608 83.555 167.39 84.6403 166.171 85.7267C163.79 85.7536 161.409 85.7627 159.028 85.7536C159.028 86.5433 159.028 87.3325 159.028 88.1222C162.772 88.1222 166.516 88.1222 170.26 88.1222C169.968 89.2032 169.659 90.2798 169.333 91.3522C164.717 91.3522 160.101 91.3522 155.484 91.3522C155.484 86.6327 155.484 81.9137 155.484 77.1942Z" fill="#F5F5F5"></path>
  <path opacity="0.995" fill-rule="evenodd" clip-rule="evenodd" d="M177.837 77.2461C181.763 77.2461 185.689 77.2461 189.614 77.2461C189.314 78.2716 189.005 79.2944 188.687 80.3146C183.944 80.3237 179.2 80.3146 174.457 80.2877C174.973 78.6021 176.1 77.5879 177.837 77.2461Z" fill="#F5F5F5"></path>
  <path opacity="0.982" fill-rule="evenodd" clip-rule="evenodd" d="M80.8945 82.3042C84.8927 82.2951 88.8913 82.3042 92.8894 82.3311C94.8528 82.4749 96.1526 83.4708 96.7878 85.3189C97.3625 87.5104 96.7534 89.296 94.9613 90.6752C94.4204 90.9907 93.8387 91.1883 93.2166 91.2674C89.1274 91.2943 85.0382 91.3035 80.9491 91.2943C81.2598 90.2569 81.587 89.2255 81.9305 88.1989C85.5469 88.1812 89.1639 88.1629 92.7804 88.1451C93.632 87.7155 93.8414 87.0781 93.4074 86.234C93.2269 85.9789 92.9816 85.8265 92.6714 85.7764C89.9087 85.7587 87.1466 85.7404 84.384 85.7226C82.8001 85.4508 81.7004 84.5808 81.0854 83.1117C80.9785 82.8517 80.9152 82.5825 80.8945 82.3042Z" fill="#F5F5F5"></path>
  <path opacity="0.989" fill-rule="evenodd" clip-rule="evenodd" d="M174.402 82.5198C178.573 82.4568 182.754 82.4482 186.942 82.4929C188.675 82.8212 189.811 83.8171 190.35 85.4806C190.878 87.5596 190.323 89.2914 188.687 90.6755C188.143 91.0426 187.543 91.2757 186.888 91.3753C182.762 91.4022 178.637 91.4113 174.511 91.4022C174.8 90.3584 175.127 89.3269 175.493 88.3068C179.109 88.289 182.726 88.2707 186.343 88.253C187.092 87.8955 187.337 87.3303 187.079 86.5572C186.903 86.1702 186.603 85.9457 186.179 85.8843C183.399 85.8666 180.618 85.8483 177.837 85.8305C176.534 85.6195 175.561 84.9466 174.92 83.8118C174.699 83.3935 174.526 82.9628 174.402 82.5198Z" fill="#F5F5F5"></path>
  <path opacity="0.989" fill-rule="evenodd" clip-rule="evenodd" d="M108.047 82.7891C109.246 82.7891 110.446 82.7891 111.645 82.7891C111.645 85.6244 111.645 88.4593 111.645 91.2947C110.446 91.2947 109.246 91.2947 108.047 91.2947C108.047 88.4593 108.047 85.6244 108.047 82.7891Z" fill="#F5F5F5"></path>
  <path opacity="0.983" fill-rule="evenodd" clip-rule="evenodd" d="M123.535 83.2773C124.753 83.2773 125.971 83.2773 127.188 83.2773C127.188 85.9512 127.188 88.6246 127.188 91.2984C125.971 91.2984 124.753 91.2984 123.535 91.2984C123.535 88.6246 123.535 85.9512 123.535 83.2773Z" fill="#F5F5F5"></path>
</svg>
