<?xml version="1.0" encoding="UTF-8"?>
<svg xmlns="http://www.w3.org/2000/svg" width="117" height="60" viewBox="0 0 117 60" fill="none">
  <path opacity="0.992" fill-rule="evenodd" clip-rule="evenodd" d="M56.7186 3.15625C56.7678 3.15658 56.8054 3.17848 56.8319 3.22165C58.5191 5.24399 60.2137 7.26045 61.9161 9.27069C61.7668 15.1903 61.5938 21.1085 61.3979 27.0255C59.6816 24.9874 57.9653 22.9491 56.249 20.911C56.3977 14.9928 56.5544 9.07451 56.7186 3.15625Z" fill="white"></path>
  <path opacity="0.994" fill-rule="evenodd" clip-rule="evenodd" d="M90.1051 7.92982C98.1144 7.92427 106.124 7.92982 114.133 7.94617C112.158 9.74454 110.183 11.5429 108.207 13.3413C102.756 13.3576 97.3049 13.3632 91.8538 13.3576C91.8538 21.0196 91.8538 28.682 91.8538 36.344C89.9539 36.344 88.0543 36.344 86.1544 36.344C86.1489 28.0715 86.1544 19.799 86.1706 11.5266C87.4815 10.3233 88.793 9.12427 90.1051 7.92982Z" fill="#FF0000"></path>
  <path opacity="0.995" fill-rule="evenodd" clip-rule="evenodd" d="M3.1582 8.09129C4.74494 8.06938 6.33712 8.05859 7.9347 8.05859C18.3459 8.09522 28.757 8.13903 39.1682 8.18938C37.2307 9.94393 35.2877 11.6933 33.3392 13.4373C25.2328 13.4592 17.1261 13.4592 9.01954 13.4373C7.06027 11.6606 5.1065 9.87854 3.1582 8.09129Z" fill="#FF0000"></path>
  <path opacity="0.994" fill-rule="evenodd" clip-rule="evenodd" d="M18.2793 16.1367C20.1791 16.1367 22.0789 16.1367 23.9787 16.1367C23.9787 22.8397 23.9787 29.5427 23.9787 36.2457C22.0789 36.2457 20.1791 36.2457 18.2793 36.2457C18.2793 29.5427 18.2793 22.8397 18.2793 16.1367Z" fill="#FF0000"></path>
  <path opacity="0.99" fill-rule="evenodd" clip-rule="evenodd" d="M98.6227 18.0978C102.951 18.087 107.28 18.0978 111.608 18.1305C109.634 19.923 107.659 21.7161 105.682 23.5092C101.332 23.5311 96.9819 23.5311 92.6318 23.5092C94.6351 21.7099 96.6321 19.906 98.6227 18.0978Z" fill="#FF0000"></path>
  <path opacity="0.991" fill-rule="evenodd" clip-rule="evenodd" d="M57.2059 25.0957C57.2383 25.0948 57.2597 25.1111 57.2707 25.1448C56.3908 27.6354 55.5113 30.1256 54.6314 32.6162C54.6062 32.6747 54.5683 32.7238 54.5181 32.7633C49.3935 35.5547 44.2718 38.3504 39.1523 41.1502C40.0115 38.5868 40.9127 36.0363 41.8563 33.499C46.9852 30.7135 52.1017 27.9126 57.2059 25.0957Z" fill="white"></path>
  <path opacity="0.991" fill-rule="evenodd" clip-rule="evenodd" d="M65.1717 29.0508C70.1726 32.1433 75.1703 35.244 80.165 38.3532C77.5562 38.8529 74.9442 39.3378 72.3283 39.8083C72.2108 39.7824 72.1026 39.7334 72.0045 39.6611C67.1146 36.6147 62.2248 33.5686 57.335 30.5222C59.9509 30.0311 62.5632 29.5406 65.1717 29.0508Z" fill="white"></path>
  <path opacity="0.989" fill-rule="evenodd" clip-rule="evenodd" d="M59.665 48.1478C64.0206 48.1128 68.3816 48.118 72.7478 48.1641C72.0402 48.7886 71.3385 49.4207 70.6429 50.0606C67.696 50.0825 64.7492 50.0825 61.8023 50.0606C61.0844 49.4282 60.372 48.7906 59.665 48.1478Z" fill="white"></path>
  <path opacity="0.985" fill-rule="evenodd" clip-rule="evenodd" d="M3.1582 48.1465C3.87063 48.1465 4.58306 48.1465 5.29549 48.1465C5.29549 51.0239 5.29549 53.9013 5.29549 56.7786C4.58306 56.7786 3.87063 56.7786 3.1582 56.7786C3.1582 53.9013 3.1582 51.0239 3.1582 48.1465Z" fill="white"></path>
  <path opacity="0.99" fill-rule="evenodd" clip-rule="evenodd" d="M9.27832 48.1466C9.99084 48.1411 10.7033 48.1466 11.4156 48.163C13.2228 50.0205 15.0416 51.8679 16.8721 53.7052C16.8883 51.8522 16.8937 49.9996 16.8883 48.1466C17.6116 48.1466 18.3348 48.1466 19.058 48.1466C19.058 51.024 19.058 53.9014 19.058 56.7788C18.3347 56.7843 17.6115 56.7788 16.8883 56.7624C15.0578 54.9251 13.239 53.0777 11.4318 51.2202C11.4156 53.0732 11.4102 54.9258 11.4156 56.7788C10.7032 56.7788 9.99075 56.7788 9.27832 56.7788C9.27832 53.9014 9.27832 51.024 9.27832 48.1466Z" fill="white"></path>
  <path opacity="0.986" fill-rule="evenodd" clip-rule="evenodd" d="M22.4897 48.1466C24.9939 48.1411 27.4984 48.1466 30.0026 48.163C31.3986 48.2709 32.2782 49.0066 32.6418 50.3701C32.6946 51.6986 32.7056 53.0284 32.6742 54.3592C32.5178 55.259 32.0589 55.9512 31.2979 56.4354C30.9637 56.6169 30.6075 56.7258 30.2293 56.7624C27.6169 56.7788 25.0049 56.7843 22.3926 56.7788C22.3926 55.0677 22.3926 53.3563 22.3926 51.6453C22.4689 51.64 22.5445 51.6453 22.6193 51.6616C23.2534 52.0553 23.8848 52.4532 24.5137 52.8551C24.5299 53.509 24.5354 54.163 24.5299 54.8169C26.1707 54.8225 27.8112 54.8169 29.4521 54.8006C30.0295 54.708 30.3909 54.3758 30.5369 53.8033C30.5683 52.8534 30.5573 51.9052 30.5045 50.9586C30.3565 50.5368 30.0706 50.2589 29.6464 50.1248C28.2659 50.0823 26.8841 50.0604 25.5014 50.0594C24.5383 49.447 23.5668 48.8477 22.5869 48.2611C22.5363 48.2362 22.5039 48.198 22.4897 48.1466Z" fill="white"></path>
  <path opacity="0.989" fill-rule="evenodd" clip-rule="evenodd" d="M36.253 48.1465C36.9655 48.1465 37.6779 48.1465 38.3903 48.1465C38.3848 50.0102 38.3903 51.874 38.4065 53.7378C38.5225 54.3453 38.8842 54.6994 39.4914 54.8004C39.9716 54.806 40.4522 54.8112 40.9324 54.8168C41.4787 54.8207 42.0237 54.8044 42.5677 54.7677C43.0515 54.6389 43.3485 54.3283 43.4583 53.8359C43.4745 51.9394 43.48 50.0429 43.4745 48.1465C44.1869 48.1465 44.8993 48.1465 45.6118 48.1465C45.6173 50.2172 45.6118 52.2883 45.5956 54.359C45.4391 55.2589 44.9803 55.9511 44.2193 56.4353C43.8851 56.6168 43.5289 56.7257 43.1506 56.7623C41.6717 56.7842 40.1931 56.7842 38.7142 56.7623C37.3466 56.537 36.5319 55.7359 36.2692 54.359C36.253 52.2883 36.2475 50.2172 36.253 48.1465Z" fill="white"></path>
  <path opacity="0.98" fill-rule="evenodd" clip-rule="evenodd" d="M51.2788 48.1466C53.5026 48.1358 55.7263 48.1466 57.9498 48.1793C57.7422 48.797 57.5479 49.4182 57.3669 50.0431C54.5602 50.0431 51.7539 50.0431 48.9473 50.0431C49.2808 48.8506 50.058 48.2186 51.2788 48.1466Z" fill="white"></path>
  <path opacity="0.982" fill-rule="evenodd" clip-rule="evenodd" d="M74.2373 48.1466C76.6553 48.1411 79.0731 48.1466 81.4911 48.163C82.7699 48.2552 83.585 48.9255 83.936 50.1739C84.1906 51.4841 83.7858 52.5248 82.7217 53.2965C82.1715 53.5702 81.5886 53.6898 80.973 53.6562C81.9986 54.6917 83.0238 55.7269 84.0494 56.7624C83.0672 56.7843 82.0847 56.7843 81.1025 56.7624C79.6284 55.1488 78.1605 53.5303 76.6984 51.9068C78.2434 51.8898 79.7871 51.8627 81.3292 51.8251C81.8033 51.5776 81.9707 51.1908 81.8311 50.6643C81.7223 50.3799 81.5225 50.2 81.232 50.1248C78.9005 50.1085 76.5689 50.1029 74.2373 50.1085C74.2373 49.4545 74.2373 48.8006 74.2373 48.1466Z" fill="white"></path>
  <path opacity="0.985" fill-rule="evenodd" clip-rule="evenodd" d="M87.4844 48.1465C88.1968 48.1465 88.9092 48.1465 89.6217 48.1465C89.6217 51.0239 89.6217 53.9013 89.6217 56.7786C88.9092 56.7786 88.1968 56.7786 87.4844 56.7786C87.4844 53.9013 87.4844 51.0239 87.4844 48.1465Z" fill="white"></path>
  <path opacity="0.986" fill-rule="evenodd" clip-rule="evenodd" d="M93.2148 48.213C96.367 48.2022 99.5189 48.213 102.671 48.2457C101.976 48.8653 101.285 49.4922 100.598 50.1258C98.8388 50.1422 97.0791 50.1477 95.3197 50.1422C95.3142 51.025 95.3197 51.9078 95.3359 52.7907C95.8392 52.3153 96.3518 51.8523 96.8741 51.401C98.4933 51.3739 100.112 51.3791 101.732 51.4174C101.01 52.0766 100.286 52.7358 99.5619 53.3956C98.1478 53.4119 96.7339 53.4175 95.3197 53.4119C95.3197 53.8916 95.3197 54.371 95.3197 54.8506C97.5435 54.8506 99.7669 54.8506 101.991 54.8506C101.817 55.5072 101.634 56.1611 101.44 56.8125C98.6983 56.8125 95.9567 56.8125 93.2148 56.8125C93.2148 53.9459 93.2148 51.0796 93.2148 48.213Z" fill="white"></path>
  <path opacity="0.995" fill-rule="evenodd" clip-rule="evenodd" d="M106.492 48.2461C108.824 48.2461 111.155 48.2461 113.487 48.2461C113.308 48.869 113.125 49.4902 112.936 50.1099C110.119 50.1154 107.302 50.1099 104.484 50.0935C104.791 49.0697 105.46 48.4537 106.492 48.2461Z" fill="white"></path>
  <path opacity="0.982" fill-rule="evenodd" clip-rule="evenodd" d="M48.9141 51.3185C51.2887 51.3129 53.6637 51.3185 56.0383 51.3348C57.2045 51.4221 57.9765 52.0271 58.3537 53.1496C58.695 54.4807 58.3333 55.5653 57.2689 56.403C56.9477 56.5946 56.6021 56.7146 56.2326 56.7626C53.8039 56.779 51.3752 56.7845 48.9464 56.779C49.131 56.1489 49.3253 55.5224 49.5293 54.8989C51.6773 54.8881 53.8256 54.877 55.9736 54.8662C56.4794 54.6053 56.6037 54.2181 56.346 53.7054C56.2388 53.5504 56.0931 53.4579 55.9088 53.4275C54.268 53.4167 52.6274 53.4056 50.9866 53.3948C50.0459 53.2297 49.3927 52.7013 49.0274 51.809C48.9639 51.651 48.9264 51.4875 48.9141 51.3185Z" fill="white"></path>
  <path opacity="0.989" fill-rule="evenodd" clip-rule="evenodd" d="M104.453 51.4494C106.93 51.4111 109.413 51.4059 111.901 51.433C112.93 51.6325 113.605 52.2374 113.925 53.2477C114.239 54.5105 113.909 55.5624 112.937 56.4031C112.614 56.6261 112.258 56.7676 111.869 56.8281C109.418 56.8445 106.968 56.85 104.518 56.8445C104.69 56.2105 104.884 55.584 105.101 54.9644C107.249 54.9536 109.397 54.9425 111.545 54.9317C111.99 54.7146 112.136 54.3712 111.982 53.9017C111.878 53.6666 111.7 53.5303 111.448 53.493C109.796 53.4822 108.145 53.4711 106.493 53.4603C105.719 53.3321 105.142 52.9234 104.761 52.2341C104.629 51.9801 104.527 51.7185 104.453 51.4494Z" fill="white"></path>
  <path opacity="0.989" fill-rule="evenodd" clip-rule="evenodd" d="M65.042 51.6133C65.7544 51.6133 66.4668 51.6133 67.1793 51.6133C67.1793 53.3355 67.1793 55.0573 67.1793 56.7795C66.4668 56.7795 65.7544 56.7795 65.042 56.7795C65.042 55.0573 65.042 53.3355 65.042 51.6133Z" fill="white"></path>
  <path opacity="0.983" fill-rule="evenodd" clip-rule="evenodd" d="M74.2373 51.9062C74.9604 51.9062 75.6839 51.9062 76.407 51.9062C76.407 53.5303 76.407 55.1541 76.407 56.7782C75.6839 56.7782 74.9604 56.7782 74.2373 56.7782C74.2373 55.1541 74.2373 53.5303 74.2373 51.9062Z" fill="white"></path>
</svg>
