<?xml version="1.0" encoding="UTF-8"?>
<svg xmlns="http://www.w3.org/2000/svg" width="32" height="32" viewBox="0 0 32 32" fill="none">
  <path d="M29.3031 19.1826C28.7067 18.1434 28.0179 17.0768 27.2472 16.0017C28.0179 14.9249 28.7067 13.8601 29.3031 12.8209C31.0139 9.8263 31.9915 7.06253 32 4.77559C32 4.08507 31.9077 3.43555 31.7026 2.84074C31.4975 2.24593 31.1762 1.70754 30.7336 1.26656C30.2927 0.82558 29.7543 0.502509 29.1596 0.297403C28.5648 0.0922962 27.9154 0 27.2249 0C24.94 0.00683688 22.1748 0.986225 19.1805 2.69715C18.1414 3.29367 17.075 3.98249 16 4.75335C14.9233 3.98249 13.8586 3.29367 12.8195 2.69715C9.82525 0.986225 7.06175 0.0085461 4.77506 0C4.08461 0 3.43516 0.0922962 2.84042 0.297403C2.24567 0.502509 1.70733 0.82387 1.2664 1.26656C0.82547 1.70583 0.502476 2.24593 0.297391 2.83903C0.0923071 3.43384 0 4.08335 0 4.77388C0.00683614 7.05911 0.986118 9.82459 2.69686 12.8191C3.29332 13.8584 3.98206 14.9249 4.75284 16C3.98206 17.0768 3.29332 18.1416 2.69686 19.1809C0.986118 22.1754 0.00854518 24.9409 0 27.2262C0 27.9167 0.0923071 28.5662 0.297391 29.161C0.502476 29.7558 0.823761 30.2942 1.2664 30.7352C1.70733 31.1762 2.24567 31.4992 2.84042 31.7026C3.43516 31.9077 4.08461 32 4.77506 32C7.06004 31.9932 9.82525 31.0138 12.8195 29.3029C13.8586 28.7064 14.925 28.0176 16 27.2467C17.075 28.0176 18.1414 28.7064 19.1805 29.3029C22.1748 31.0138 24.9383 31.9915 27.2249 32C27.9154 32 28.5648 31.9077 29.1596 31.7026C29.7543 31.4975 30.2927 31.1762 30.7336 30.7352C31.1745 30.2942 31.4975 29.7558 31.7009 29.161C31.906 28.5662 31.9983 27.9167 31.9983 27.2262C31.9915 24.9409 31.0122 22.1754 29.3014 19.1809L29.3031 19.1826ZM19.9393 4.01838C22.7866 2.37924 25.3877 1.5161 27.2249 1.52294C27.7787 1.52294 28.2606 1.59815 28.6622 1.73659C29.0656 1.87675 29.3886 2.07674 29.6569 2.34166C29.9235 2.6083 30.1235 2.93302 30.2619 3.3364C30.4003 3.73807 30.4755 4.22009 30.4755 4.77388C30.4824 6.613 29.6193 9.21441 27.9803 12.0603C27.4847 12.9251 26.919 13.8122 26.2901 14.7147C25.0528 13.1131 23.6394 11.5031 22.0671 9.93058C20.4948 8.35981 18.8848 6.94458 17.2835 5.70711C18.1841 5.07811 19.0728 4.51234 19.9376 4.01667L19.9393 4.01838ZM25.357 16C24.0991 17.6631 22.6345 19.3484 20.9921 20.9909C19.3497 22.6335 17.6629 24.0983 16.0017 25.3563C14.3388 24.0983 12.6537 22.6335 11.0113 20.9909C9.36894 19.3484 7.90429 17.6614 6.64644 16C7.90429 14.3387 9.36894 12.6517 11.0113 11.0091C12.6537 9.36655 14.3405 7.90174 16.0017 6.64376C17.6629 7.90174 19.3497 9.36655 20.9921 11.0091C22.6345 12.6517 24.0991 14.3387 25.357 16ZM4.01965 12.0603C2.38069 9.2127 1.51763 6.61129 1.52447 4.77388C1.52447 4.22009 1.59966 3.73807 1.7381 3.3364C1.87824 2.93302 2.0782 2.61001 2.3431 2.34337C2.61142 2.07674 2.93442 1.87675 3.33775 1.73659C3.73937 1.59815 4.22133 1.52294 4.77506 1.52294C6.61398 1.5161 9.21513 2.37924 12.0607 4.01838C12.9254 4.51405 13.8142 5.07982 14.7148 5.70882C13.1134 6.94629 11.5035 8.35981 9.93122 9.93229C8.36062 11.5048 6.94552 13.1149 5.70818 14.7164C5.07926 13.8156 4.51356 12.9268 4.01794 12.062L4.01965 12.0603ZM12.0624 27.9817C9.21513 29.6208 6.61398 30.4839 4.77677 30.4771C4.22304 30.4771 3.74109 30.4019 3.33946 30.2634C2.93613 30.1233 2.61313 29.9233 2.34481 29.6584C2.0782 29.3917 1.87824 29.067 1.73981 28.6636C1.60138 28.262 1.52447 27.7799 1.52618 27.2262C1.51934 25.387 2.3824 22.7856 4.02137 19.9398C4.51699 19.0749 5.08268 18.1861 5.7116 17.2854C6.94895 18.8869 8.36231 20.497 9.93462 22.0695C11.5069 23.6402 13.1168 25.0555 14.7182 26.2929C13.8176 26.9219 12.9289 27.4877 12.0641 27.9833L12.0624 27.9817ZM30.2619 28.6619C30.1218 29.0653 29.9235 29.3883 29.6569 29.6567C29.3903 29.9233 29.0656 30.1216 28.6622 30.2617C28.2606 30.4019 27.7787 30.4754 27.2249 30.4754C25.386 30.4822 22.7849 29.6191 19.9393 27.98C19.0746 27.4843 18.1876 26.9185 17.2869 26.2895C18.8883 25.052 20.4982 23.6385 22.0705 22.066C23.6411 20.4936 25.0562 18.8835 26.2935 17.2819C26.9225 18.1827 27.4881 19.0715 27.9838 19.9364C29.6227 22.7839 30.4858 25.3853 30.479 27.2227C30.479 27.7765 30.4038 28.2586 30.2653 28.6602L30.2619 28.6619Z" fill="white"></path>
</svg>
