<?xml version="1.0" encoding="UTF-8"?>
<svg xmlns="http://www.w3.org/2000/svg" width="32" height="32" viewBox="0 0 32 32" fill="none">
  <path d="M1.51179 0.259367C1.1659 -0.0864558 0.605309 -0.0864558 0.259418 0.259367C-0.0864726 0.605191 -0.0864726 1.16562 0.259418 1.51145L12.8705 14.1201C13.2164 14.4659 13.777 14.4659 14.1229 14.1201C14.4688 13.7743 14.4688 13.2138 14.1229 12.868L1.51179 0.259367Z" fill="white"></path>
  <path d="M19.129 17.8824C18.7831 17.5366 18.2225 17.5366 17.8766 17.8824C17.5307 18.2282 17.5307 18.7887 17.8766 19.1345L30.4877 31.7432C30.8336 32.089 31.3942 32.089 31.7401 31.7432C32.0859 31.3973 32.0859 30.8369 31.7401 30.491L19.129 17.8824Z" fill="white"></path>
  <path d="M19.129 14.1201L31.7401 1.51145C32.0859 1.16562 32.0859 0.605191 31.7401 0.259367C31.3942 -0.0864558 30.8336 -0.0864558 30.4877 0.259367L17.8766 12.868C17.5307 13.2138 17.5307 13.7743 17.8766 14.1201C18.2225 14.4659 18.7831 14.4659 19.129 14.1201Z" fill="white"></path>
  <path d="M12.8705 17.8824L0.259418 30.491C-0.0864726 30.8369 -0.0864726 31.3973 0.259418 31.7432C0.605309 32.089 1.1659 32.089 1.51179 31.7432L14.1229 19.1345C14.4688 18.7887 14.4688 18.2282 14.1229 17.8824C13.777 17.5366 13.2164 17.5366 12.8705 17.8824Z" fill="white"></path>
</svg>
