<?xml version="1.0" encoding="UTF-8"?>
<svg xmlns="http://www.w3.org/2000/svg" width="100" height="50" viewBox="0 0 100 50" fill="none">
  <path opacity="0.992" fill-rule="evenodd" clip-rule="evenodd" d="M48.4775 2.62891C48.5196 2.62918 48.5517 2.64743 48.5744 2.6834C50.0164 4.36869 51.4648 6.04907 52.9198 7.72427C52.7922 12.6572 52.6444 17.5891 52.4769 22.5199C51.01 20.8216 49.5431 19.1229 48.0762 17.4245C48.2032 12.4927 48.3372 7.56079 48.4775 2.62891Z" fill="white"></path>
  <path opacity="0.994" fill-rule="evenodd" clip-rule="evenodd" d="M77.0132 6.60721C83.8588 6.60258 90.7046 6.60721 97.5502 6.62083C95.8618 8.11947 94.1735 9.61811 92.4851 11.1167C87.8261 11.1304 83.1668 11.135 78.5078 11.1304C78.5078 17.5154 78.5078 23.9007 78.5078 30.2857C76.884 30.2857 75.2604 30.2857 73.6365 30.2857C73.6318 23.392 73.6365 16.4982 73.6504 9.60449C74.7708 8.60176 75.8917 7.60258 77.0132 6.60721Z" fill="#FF0000"></path>
  <path opacity="0.995" fill-rule="evenodd" clip-rule="evenodd" d="M2.69922 6.746C4.0554 6.72774 5.41624 6.71875 6.7817 6.71875C15.6801 6.74927 24.5785 6.78578 33.477 6.82774C31.821 8.28987 30.1603 9.74763 28.495 11.201C21.5664 11.2193 14.6376 11.2193 7.70891 11.201C6.03431 9.72038 4.36443 8.23537 2.69922 6.746Z" fill="#FF0000"></path>
  <path opacity="0.994" fill-rule="evenodd" clip-rule="evenodd" d="M15.625 13.4453C17.2488 13.4453 18.8725 13.4453 20.4963 13.4453C20.4963 19.0311 20.4963 24.617 20.4963 30.2028C18.8725 30.2028 17.2488 30.2028 15.625 30.2028C15.625 24.617 15.625 19.0311 15.625 13.4453Z" fill="#FF0000"></path>
  <path opacity="0.99" fill-rule="evenodd" clip-rule="evenodd" d="M84.2923 15.0815C87.992 15.0725 91.6914 15.0815 95.3911 15.1087C93.7038 16.6025 92.0155 18.0968 90.326 19.591C86.6081 19.6093 82.8898 19.6093 79.1719 19.591C80.884 18.0916 82.5909 16.5883 84.2923 15.0815Z" fill="#FF0000"></path>
  <path opacity="0.991" fill-rule="evenodd" clip-rule="evenodd" d="M48.8933 20.9141C48.921 20.9133 48.9392 20.9269 48.9486 20.955C48.1966 23.0304 47.4449 25.1056 46.6929 27.1811C46.6713 27.2299 46.6389 27.2708 46.596 27.3037C42.216 29.6299 37.8385 31.9596 33.4629 34.2928C34.1972 32.1566 34.9675 30.0313 35.774 27.9168C40.1576 25.5956 44.5307 23.2615 48.8933 20.9141Z" fill="white"></path>
  <path opacity="0.991" fill-rule="evenodd" clip-rule="evenodd" d="M55.7019 24.2109C59.9762 26.788 64.2477 29.372 68.5168 31.963C66.2871 32.3793 64.0546 32.7834 61.8187 33.1755C61.7183 33.154 61.6258 33.1131 61.542 33.0529C57.3626 30.5142 53.1833 27.9758 49.0039 25.4371C51.2397 25.0278 53.4725 24.6191 55.7019 24.2109Z" fill="white"></path>
  <path opacity="0.989" fill-rule="evenodd" clip-rule="evenodd" d="M50.9961 40.1205C54.7188 40.0914 58.4461 40.0957 62.1779 40.1342C61.5732 40.6546 60.9734 41.1813 60.3789 41.7145C57.8602 41.7328 55.3415 41.7328 52.8228 41.7145C52.2092 41.1876 51.6003 40.6562 50.9961 40.1205Z" fill="white"></path>
  <path opacity="0.985" fill-rule="evenodd" clip-rule="evenodd" d="M2.69922 40.125C3.30813 40.125 3.91704 40.125 4.52596 40.125C4.52596 42.5228 4.52596 44.9206 4.52596 47.3185C3.91704 47.3185 3.30813 47.3185 2.69922 47.3185C2.69922 44.9206 2.69922 42.5228 2.69922 40.125Z" fill="white"></path>
  <path opacity="0.99" fill-rule="evenodd" clip-rule="evenodd" d="M7.92969 40.1228C8.53868 40.1182 9.14759 40.1228 9.75642 40.1365C11.301 41.6844 12.8556 43.2239 14.4201 44.755C14.434 43.2108 14.4386 41.667 14.434 40.1228C15.0521 40.1228 15.6703 40.1228 16.2884 40.1228C16.2884 42.5207 16.2884 44.9185 16.2884 47.3163C15.6702 47.3209 15.0521 47.3163 14.434 47.3027C12.8694 45.7716 11.3149 44.2321 9.77026 42.6841C9.75642 44.2283 9.7518 45.7722 9.75642 47.3163C9.14751 47.3163 8.5386 47.3163 7.92969 47.3163C7.92969 44.9185 7.92969 42.5207 7.92969 40.1228Z" fill="white"></path>
  <path opacity="0.986" fill-rule="evenodd" clip-rule="evenodd" d="M19.2237 40.1228C21.364 40.1182 23.5046 40.1228 25.6449 40.1365C26.8381 40.2264 27.5898 40.8395 27.9007 41.9757C27.9458 43.0828 27.9552 44.191 27.9283 45.2999C27.7947 46.0498 27.4025 46.6266 26.752 47.0302C26.4664 47.1814 26.1619 47.2722 25.8387 47.3027C23.6059 47.3163 21.3734 47.3209 19.1406 47.3163C19.1406 45.8904 19.1406 44.4643 19.1406 43.0384C19.2059 43.034 19.2704 43.0384 19.3344 43.052C19.8764 43.3801 20.416 43.7117 20.9535 44.0465C20.9674 44.5915 20.9721 45.1365 20.9674 45.6814C22.3698 45.6861 23.772 45.6814 25.1744 45.6678C25.6679 45.5907 25.9768 45.3138 26.1016 44.8367C26.1284 44.0452 26.119 43.255 26.0739 42.4662C25.9474 42.1147 25.703 41.8831 25.3405 41.7713C24.1606 41.7359 22.9795 41.7177 21.7977 41.7168C20.9746 41.2065 20.1442 40.707 19.3067 40.2182C19.2634 40.1975 19.2358 40.1656 19.2237 40.1228Z" fill="white"></path>
  <path opacity="0.989" fill-rule="evenodd" clip-rule="evenodd" d="M30.9861 40.125C31.5951 40.125 32.204 40.125 32.8129 40.125C32.8082 41.6781 32.8129 43.2313 32.8267 44.7844C32.9258 45.2907 33.235 45.5858 33.7539 45.67C34.1644 45.6746 34.5751 45.679 34.9856 45.6836C35.4525 45.6869 35.9183 45.6732 36.3833 45.6427C36.7968 45.5354 37.0506 45.2765 37.1445 44.8661C37.1583 43.2858 37.163 41.7054 37.1583 40.125C37.7672 40.125 38.3761 40.125 38.985 40.125C38.9897 41.8506 38.985 43.5765 38.9712 45.3021C38.8375 46.052 38.4453 46.6288 37.7949 47.0324C37.5093 47.1836 37.2048 47.2743 36.8815 47.3048C35.6175 47.3231 34.3537 47.3231 33.0897 47.3048C31.9208 47.1171 31.2244 46.4495 31 45.3021C30.9861 43.5765 30.9814 41.8506 30.9861 40.125Z" fill="white"></path>
  <path opacity="0.98" fill-rule="evenodd" clip-rule="evenodd" d="M43.8287 40.1245C45.7294 40.1155 47.63 40.1245 49.5304 40.1517C49.353 40.6664 49.1869 41.1841 49.0322 41.7048C46.6333 41.7048 44.2348 41.7048 41.8359 41.7048C42.121 40.7111 42.7853 40.1844 43.8287 40.1245Z" fill="white"></path>
  <path opacity="0.982" fill-rule="evenodd" clip-rule="evenodd" d="M63.4512 40.1228C65.5179 40.1182 67.5843 40.1228 69.651 40.1365C70.744 40.2133 71.4407 40.7719 71.7407 41.8122C71.9582 42.904 71.6123 43.7713 70.7028 44.4144C70.2325 44.6425 69.7343 44.7422 69.2082 44.7141C70.0847 45.5771 70.961 46.4397 71.8376 47.3027C70.9981 47.3209 70.1583 47.3209 69.3189 47.3027C68.059 45.958 66.8043 44.6092 65.5547 43.2564C66.8752 43.2422 68.1946 43.2196 69.5126 43.1882C69.9178 42.982 70.0609 42.6596 69.9416 42.2209C69.8486 41.9839 69.6779 41.834 69.4296 41.7713C67.4368 41.7577 65.444 41.7531 63.4512 41.7577C63.4512 41.2128 63.4512 40.6678 63.4512 40.1228Z" fill="white"></path>
  <path opacity="0.985" fill-rule="evenodd" clip-rule="evenodd" d="M74.7715 40.125C75.3804 40.125 75.9893 40.125 76.5982 40.125C76.5982 42.5228 76.5982 44.9206 76.5982 47.3185C75.9893 47.3185 75.3804 47.3185 74.7715 47.3185C74.7715 44.9206 74.7715 42.5228 74.7715 40.125Z" fill="white"></path>
  <path opacity="0.986" fill-rule="evenodd" clip-rule="evenodd" d="M79.6719 40.1752C82.366 40.1663 85.0599 40.1752 87.7538 40.2025C87.1598 40.7188 86.5695 41.2412 85.9824 41.7692C84.4787 41.7829 82.9747 41.7875 81.4709 41.7829C81.4662 42.5186 81.4709 43.2543 81.4848 43.99C81.9149 43.5938 82.353 43.2079 82.7995 42.8319C84.1834 42.8093 85.5673 42.8137 86.9511 42.8455C86.3342 43.3949 85.7159 43.9442 85.0967 44.494C83.888 44.5077 82.6796 44.5123 81.4709 44.5077C81.4709 44.9074 81.4709 45.3069 81.4709 45.7066C83.3716 45.7066 85.2719 45.7066 87.1726 45.7066C87.0245 46.2537 86.8676 46.7987 86.702 47.3415C84.3586 47.3415 82.0154 47.3415 79.6719 47.3415C79.6719 44.9526 79.6719 42.5641 79.6719 40.1752Z" fill="white"></path>
  <path opacity="0.995" fill-rule="evenodd" clip-rule="evenodd" d="M91.0188 40.2031C93.0116 40.2031 95.0044 40.2031 96.9972 40.2031C96.8447 40.7222 96.6877 41.2399 96.5266 41.7563C94.1187 41.7609 91.7107 41.7563 89.3027 41.7426C89.5648 40.8895 90.1369 40.3761 91.0188 40.2031Z" fill="white"></path>
  <path opacity="0.982" fill-rule="evenodd" clip-rule="evenodd" d="M41.8086 42.7674C43.8382 42.7627 45.8681 42.7674 47.8977 42.781C48.8944 42.8537 49.5542 43.3578 49.8767 44.2933C50.1684 45.4025 49.8592 46.3063 48.9495 47.0044C48.6749 47.1641 48.3796 47.2641 48.0638 47.3042C45.9879 47.3178 43.9121 47.3224 41.8363 47.3178C41.994 46.7927 42.1601 46.2706 42.3345 45.751C44.1703 45.742 46.0065 45.7328 47.8424 45.7238C48.2747 45.5063 48.381 45.1837 48.1607 44.7565C48.069 44.6273 47.9445 44.5502 47.787 44.5249C46.3846 44.5159 44.9824 44.5066 43.58 44.4976C42.7759 44.36 42.2177 43.9197 41.9055 43.1761C41.8512 43.0445 41.8191 42.9082 41.8086 42.7674Z" fill="white"></path>
  <path opacity="0.989" fill-rule="evenodd" clip-rule="evenodd" d="M89.2734 42.8755C91.3908 42.8436 93.5129 42.8392 95.6393 42.8618C96.5187 43.028 97.0955 43.5321 97.3692 44.3741C97.6371 45.4264 97.3556 46.303 96.525 47.0035C96.2488 47.1894 95.9443 47.3073 95.6117 47.3577C93.5173 47.3714 91.4232 47.376 89.3288 47.3714C89.4755 46.843 89.6416 46.321 89.827 45.8046C91.6629 45.7956 93.499 45.7864 95.3349 45.7774C95.7152 45.5964 95.8397 45.3103 95.7085 44.9191C95.6194 44.7231 95.4672 44.6095 95.2518 44.5785C93.8403 44.5695 92.4287 44.5602 91.0171 44.5512C90.3554 44.4444 89.8619 44.1038 89.5364 43.5294C89.424 43.3177 89.3363 43.0997 89.2734 42.8755Z" fill="white"></path>
  <path opacity="0.989" fill-rule="evenodd" clip-rule="evenodd" d="M55.5918 43.0117C56.2007 43.0117 56.8096 43.0117 57.4185 43.0117C57.4185 44.4469 57.4185 45.8817 57.4185 47.3169C56.8096 47.3169 56.2007 47.3169 55.5918 47.3169C55.5918 45.8817 55.5918 44.4469 55.5918 43.0117Z" fill="white"></path>
  <path opacity="0.983" fill-rule="evenodd" clip-rule="evenodd" d="M63.4512 43.2578C64.0692 43.2578 64.6875 43.2578 65.3056 43.2578C65.3056 44.6112 65.3056 45.9644 65.3056 47.3178C64.6875 47.3178 64.0692 47.3178 63.4512 47.3178C63.4512 45.9644 63.4512 44.6112 63.4512 43.2578Z" fill="white"></path>
</svg>
