<?xml version="1.0" encoding="UTF-8"?>
<svg xmlns="http://www.w3.org/2000/svg" width="23" height="23" viewBox="0 0 23 23" fill="none">
  <path d="M12.0725 16.0454L12.083 12.0823H12.0856H16.0373L18.9972 17.2073L19.9995 16.6277L17.0397 11.5026L19.9995 6.38019L18.9972 5.80054L16.0373 10.923H12.083L12.0725 6.96246L17.1997 4.00388L16.6198 3.00195L11.4926 5.96053L6.36797 3.00195L5.78807 4.00388L10.9153 6.96246L10.9232 10.923H6.95049L3.99064 5.80054L2.98828 6.38019L5.94813 11.5026L2.98828 16.6277L3.99064 17.2073L6.95049 12.0823H10.9232L10.9153 16.0428L5.78807 19.0014L6.36797 20.0059L11.4926 17.0473L16.6198 20.0059L17.1997 19.0014L12.0725 16.0454Z" fill="white"></path>
  <path d="M6.33166 1.05232L5.81736 0.0136719C3.30621 1.2569 1.24114 3.32371 0 5.83378L1.0391 6.34786C2.16741 4.06336 4.04617 2.18277 6.33166 1.05232Z" fill="white"></path>
  <path d="M21.9613 6.34468L23.0004 5.8306C21.7567 3.31266 19.6811 1.24061 17.1621 0L16.6504 1.03865C18.9437 2.1691 20.8304 4.05231 21.9639 6.34468H21.9613Z" fill="white"></path>
  <path d="M16.6504 21.9616L17.1621 23.0003C19.6811 21.757 21.7514 19.6876 22.9978 17.1723L21.9587 16.6582C20.8278 18.948 18.9411 20.8312 16.6504 21.9616Z" fill="white"></path>
  <path d="M1.0391 16.6582L0 17.1723C1.24114 19.6824 3.30621 21.7492 5.81736 22.9924L6.33166 21.9537C4.0488 20.8233 2.16741 18.9427 1.0391 16.6582Z" fill="white"></path>
</svg>
