<?xml version="1.0" encoding="UTF-8"?>
<svg xmlns="http://www.w3.org/2000/svg" width="24" height="21" viewBox="0 0 24 21" fill="none">
  <path d="M19.4062 7.95581L14.8134 0H9.18559L4.5928 7.95581L0 15.9106L2.81441 20.7838H21.1866L24 15.9106L19.4072 7.95581H19.4062ZM20.6604 19.8753H11.999H3.33753L1.04827 15.9106L5.37899 8.40958L9.70972 0.908569H14.2872L18.6179 8.40958L22.9487 15.9106L20.6594 19.8753H20.6604Z" fill="white"></path>
  <path d="M11.9968 6.91016L9.69322 10.9003L7.38867 14.8904H16.6048L14.3013 10.9003L11.9968 6.91016ZM11.9968 13.9819H8.96311L10.4794 11.3551L11.9957 8.7283L13.5131 11.3551L15.0294 13.9819H11.9957H11.9968Z" fill="white"></path>
</svg>
