<?xml version="1.0" encoding="UTF-8"?>
<svg xmlns="http://www.w3.org/2000/svg" width="196" height="33" viewBox="0 0 196 33" fill="none">
  <path opacity="0.999" fill-rule="evenodd" clip-rule="evenodd" d="M99.127 2.34766C99.3069 2.34766 99.4864 2.34766 99.6664 2.34766C99.6664 11.8148 99.6664 21.2814 99.6664 30.7485C99.4864 30.7485 99.3069 30.7485 99.127 30.7485C99.127 21.2814 99.127 11.8148 99.127 2.34766Z" fill="#050505"></path>
  <path opacity="0.985" fill-rule="evenodd" clip-rule="evenodd" d="M43.5199 2.77344C43.5943 2.77391 43.6515 2.80568 43.6915 2.86827C44.9503 4.30633 46.2086 5.74486 47.4674 7.18292C47.3727 11.4824 47.2423 15.7814 47.0751 20.0795C45.7722 18.6187 44.4808 17.1488 43.2012 15.67C43.2765 11.3705 43.3828 7.07197 43.5199 2.77344Z" fill="#050505"></path>
  <path opacity="0.993" fill-rule="evenodd" clip-rule="evenodd" d="M68.7735 6.42491C74.854 6.41684 80.9346 6.42491 87.0151 6.44861C85.5426 7.76197 84.0548 9.05827 82.5528 10.3365C78.4175 10.3603 74.2818 10.3683 70.1465 10.3603C70.1465 15.9233 70.1465 21.4868 70.1465 27.0499C68.7082 27.0499 67.2695 27.0499 65.8313 27.0499C65.8229 21.0284 65.8313 15.0068 65.8558 8.98525C66.838 8.13797 67.8104 7.28452 68.7735 6.42491Z" fill="#FF0000"></path>
  <path opacity="0.989" fill-rule="evenodd" clip-rule="evenodd" d="M2.9668 6.66307C12.0633 6.61755 21.1678 6.64126 30.2803 6.73419C28.802 8.00962 27.3146 9.27415 25.8179 10.5273C19.672 10.5591 13.526 10.5591 7.38011 10.5273C5.91533 9.22958 4.44423 7.94135 2.9668 6.66307Z" fill="#FF0000"></path>
  <path opacity="0.983" fill-rule="evenodd" clip-rule="evenodd" d="M14.3926 12.4453C15.8474 12.4453 17.3021 12.4453 18.7569 12.4453C18.7569 17.3133 18.7569 22.1808 18.7569 27.0488C17.3021 27.0488 15.8474 27.0488 14.3926 27.0488C14.3926 22.1808 14.3926 17.3133 14.3926 12.4453Z" fill="#FF0000"></path>
  <path opacity="0.956" fill-rule="evenodd" clip-rule="evenodd" d="M153.215 13.4414C156.467 13.4589 159.721 13.4827 162.973 13.5125C162.435 13.9535 161.912 14.4115 161.404 14.8875C159.214 14.9193 157.024 14.9193 154.833 14.8875C154.266 14.4257 153.726 13.9435 153.215 13.4414Z" fill="#050505"></path>
  <path opacity="0.974" fill-rule="evenodd" clip-rule="evenodd" d="M111.143 13.4883C111.682 13.4883 112.221 13.4883 112.761 13.4883C112.761 15.5427 112.761 17.5976 112.761 19.6521C112.221 19.6521 111.682 19.6521 111.143 19.6521C111.143 17.5976 111.143 15.5427 111.143 13.4883Z" fill="#050505"></path>
  <path opacity="0.978" fill-rule="evenodd" clip-rule="evenodd" d="M115.703 13.4874C116.243 13.4793 116.782 13.4874 117.321 13.5111C118.688 14.8164 120.036 16.1359 121.367 17.4702C121.391 16.1426 121.4 14.815 121.391 13.4874C121.931 13.4874 122.47 13.4874 123.01 13.4874C123.01 15.5418 123.01 17.5968 123.01 19.6512C122.454 19.6593 121.898 19.6512 121.342 19.6275C120.01 18.3393 118.678 17.0515 117.346 15.7633C117.321 17.0591 117.313 18.3549 117.321 19.6512C116.782 19.6512 116.243 19.6512 115.703 19.6512C115.703 17.5968 115.703 15.5418 115.703 13.4874Z" fill="#050505"></path>
  <path opacity="0.976" fill-rule="evenodd" clip-rule="evenodd" d="M125.559 13.4874C127.488 13.4793 129.417 13.4874 131.345 13.5111C132.345 13.6714 132.941 14.2323 133.135 15.1943C133.168 16.1269 133.168 17.0591 133.135 17.9917C132.935 18.8651 132.387 19.4103 131.492 19.6275C129.482 19.6512 127.471 19.6593 125.461 19.6512C125.461 18.4184 125.461 17.1857 125.461 15.9529C125.585 15.9653 125.699 16.0046 125.804 16.0715C126.213 16.3166 126.622 16.5612 127.03 16.8064C127.079 17.2796 127.095 17.7537 127.079 18.2288C128.338 18.2368 129.597 18.2288 130.855 18.2051C131.207 18.1183 131.427 17.9049 131.517 17.565C131.55 16.9012 131.55 16.2374 131.517 15.5736C131.431 15.2531 131.226 15.0397 130.904 14.9335C129.843 14.8733 128.781 14.842 127.717 14.8387C127.055 14.4319 126.384 14.0365 125.706 13.6534C125.63 13.6173 125.581 13.5618 125.559 13.4874Z" fill="#050505"></path>
  <path opacity="0.978" fill-rule="evenodd" clip-rule="evenodd" d="M135.759 13.4883C136.298 13.4883 136.838 13.4883 137.377 13.4883C137.355 14.8813 137.379 16.2719 137.451 17.6607C137.581 17.9447 137.802 18.1268 138.113 18.206C138.505 18.214 138.897 18.2216 139.29 18.2297C139.734 18.2354 140.176 18.2116 140.614 18.1585C140.87 18.0528 141.042 17.8712 141.129 17.6133C141.153 16.2383 141.161 14.8633 141.153 13.4883C141.692 13.4883 142.232 13.4883 142.771 13.4883C142.78 15.0055 142.771 16.5228 142.747 18.04C142.555 18.8105 142.072 19.324 141.3 19.581C140.633 19.6345 139.962 19.6582 139.29 19.6521C138.601 19.6578 137.915 19.6341 137.23 19.581C136.408 19.296 135.926 18.7346 135.784 17.8978C135.759 16.4279 135.751 14.9581 135.759 13.4883Z" fill="#050505"></path>
  <path opacity="0.958" fill-rule="evenodd" clip-rule="evenodd" d="M146.743 13.4883C148.475 13.4883 150.208 13.4883 151.941 13.4883C151.828 13.9491 151.681 14.3996 151.499 14.8396C149.407 14.8633 147.315 14.8713 145.223 14.8633C145.432 14.0919 145.939 13.6334 146.743 13.4883Z" fill="#050505"></path>
  <path opacity="0.966" fill-rule="evenodd" clip-rule="evenodd" d="M164.053 13.4874C165.949 13.4793 167.845 13.4874 169.741 13.5111C170.784 13.761 171.323 14.4091 171.359 15.4551C171.241 16.7552 170.505 17.419 169.153 17.4465C169.904 18.1733 170.657 18.9006 171.408 19.6275C170.657 19.6593 169.904 19.6593 169.153 19.6275C168.058 18.4739 166.962 17.3199 165.867 16.1663C167.011 16.1506 168.156 16.1345 169.3 16.1189C169.716 15.9231 169.838 15.6149 169.667 15.1943C169.594 15.1232 169.52 15.0521 169.447 14.9809C167.653 14.9103 165.855 14.8866 164.053 14.9098C164.053 14.4357 164.053 13.9615 164.053 13.4874Z" fill="#050505"></path>
  <path opacity="0.974" fill-rule="evenodd" clip-rule="evenodd" d="M173.908 13.4883C174.448 13.4883 174.987 13.4883 175.526 13.4883C175.526 15.5427 175.526 17.5976 175.526 19.6521C174.987 19.6521 174.448 19.6521 173.908 19.6521C173.908 17.5976 173.908 15.5427 173.908 13.4883Z" fill="#050505"></path>
  <path opacity="0.974" fill-rule="evenodd" clip-rule="evenodd" d="M178.176 13.5343C180.546 13.5262 182.916 13.5343 185.286 13.558C184.747 14.0165 184.207 14.4745 183.668 14.933C182.377 14.9567 181.086 14.9648 179.794 14.9567C179.786 15.5574 179.794 16.1582 179.819 16.7584C180.17 16.4502 180.521 16.142 180.873 15.8338C182.099 15.8021 183.325 15.8021 184.551 15.8338C184.026 16.3255 183.486 16.7997 182.932 17.2563C181.886 17.28 180.84 17.288 179.794 17.28C179.794 17.6119 179.794 17.9438 179.794 18.2757C181.445 18.2757 183.096 18.2757 184.747 18.2757C184.616 18.7342 184.485 19.1922 184.354 19.6507C182.295 19.6507 180.235 19.6507 178.176 19.6507C178.176 17.6119 178.176 15.5731 178.176 13.5343Z" fill="#050505"></path>
  <path opacity="0.967" fill-rule="evenodd" clip-rule="evenodd" d="M188.13 13.5371C189.862 13.5215 191.595 13.5371 193.327 13.5845C193.188 14.0136 193.041 14.4403 192.886 14.8647C190.794 14.9121 188.702 14.9278 186.609 14.9121C186.817 14.1426 187.323 13.6841 188.13 13.5371Z" fill="#050505"></path>
  <path opacity="0.989" fill-rule="evenodd" clip-rule="evenodd" d="M75.1987 13.8233C78.5003 13.8153 81.8025 13.8233 85.1041 13.847C83.6261 15.1542 82.1384 16.4501 80.6418 17.735C77.3396 17.7743 74.038 17.7667 70.7363 17.7113C72.2246 16.414 73.7124 15.1182 75.1987 13.8233Z" fill="#FF0000"></path>
  <path opacity="0.97" fill-rule="evenodd" clip-rule="evenodd" d="M145.223 15.7647C147.086 15.7567 148.95 15.7647 150.813 15.7885C151.816 16.0464 152.322 16.6789 152.333 17.685C152.342 18.3313 152.097 18.8689 151.598 19.2971C151.361 19.4592 151.099 19.5697 150.813 19.629C148.95 19.6683 147.086 19.6607 145.223 19.6053C145.36 19.1757 145.507 18.749 145.664 18.3251C147.282 18.2857 148.9 18.262 150.519 18.254C150.977 17.9377 150.977 17.6219 150.519 17.3057C149.293 17.2901 148.067 17.2739 146.841 17.2583C146.104 17.1777 145.589 16.806 145.297 16.1441C145.244 16.0227 145.219 15.8961 145.223 15.7647Z" fill="#050505"></path>
  <path opacity="0.971" fill-rule="evenodd" clip-rule="evenodd" d="M186.561 15.813C188.508 15.7903 190.453 15.814 192.396 15.8842C193.248 16.2194 193.69 16.8358 193.72 17.7333C193.704 18.6498 193.263 19.2823 192.396 19.6299C190.469 19.7 188.541 19.7237 186.61 19.701C186.722 19.2401 186.869 18.7897 187.051 18.3497C188.669 18.334 190.287 18.3179 191.906 18.3023C192.298 17.986 192.298 17.6702 191.906 17.354C190.647 17.3383 189.388 17.3222 188.13 17.3066C187.258 17.1515 186.735 16.6537 186.561 15.813Z" fill="#050505"></path>
  <path opacity="0.974" fill-rule="evenodd" clip-rule="evenodd" d="M157.236 15.9531C157.776 15.9531 158.315 15.9531 158.855 15.9531C158.855 17.1859 158.855 18.4186 158.855 19.6514C158.315 19.6514 157.776 19.6514 157.236 19.6514C157.236 18.4186 157.236 17.1859 157.236 15.9531Z" fill="#050505"></path>
  <path opacity="0.946" fill-rule="evenodd" clip-rule="evenodd" d="M164.052 16.1445C164.608 16.1445 165.164 16.1445 165.72 16.1445C165.72 17.3142 165.72 18.4835 165.72 19.6532C165.164 19.6532 164.608 19.6532 164.052 19.6532C164.052 18.4835 164.052 17.3142 164.052 16.1445Z" fill="#050505"></path>
  <path opacity="0.983" fill-rule="evenodd" clip-rule="evenodd" d="M43.9119 18.6562C43.9412 18.6676 43.9575 18.6913 43.961 18.7274C43.296 20.5936 42.5931 22.4427 41.8524 24.2748C38.0361 26.2543 34.2275 28.2457 30.4268 30.2489C30.3511 30.3053 30.2694 30.321 30.1816 30.2963C30.8652 28.4401 31.5681 26.5909 32.2902 24.7489C36.1672 22.7168 40.0411 20.6856 43.9119 18.6562Z" fill="#050505"></path>
  <path opacity="0.983" fill-rule="evenodd" clip-rule="evenodd" d="M49.7963 21.5496C49.8797 21.5421 49.9616 21.5501 50.0415 21.5733C53.7845 23.8099 57.5279 26.0459 61.2709 28.2824C61.1498 28.3488 61.0189 28.3881 60.8786 28.4009C59.0005 28.7433 57.1209 29.059 55.2394 29.3492C51.4797 27.1051 47.7206 24.8605 43.9609 22.6165C45.9141 22.2689 47.8594 21.9133 49.7963 21.5496Z" fill="#050505"></path>
</svg>
