<svg width="362" height="48" viewBox="0 0 362 48" fill="none" xmlns="http://www.w3.org/2000/svg">
<g opacity="0.3">
<path opacity="0.7" d="M4.41492 9.33563C3.40948 9.33563 2.64035 9.11163 2.10754 8.66363C1.57477 8.21563 1.2869 7.62763 1.24393 6.89963L2.62317 6.81563C2.67474 7.30363 2.86377 7.65163 3.19034 7.85963C3.52548 8.05963 3.93796 8.15963 4.4278 8.15963C4.76294 8.15963 5.07663 8.11163 5.3688 8.01563C5.64401 7.93077 5.88614 7.77214 6.06485 7.55963C6.2453 7.35163 6.33554 7.07163 6.33554 6.71963C6.33554 6.37563 6.25391 6.09163 6.09064 5.86763C5.93094 5.63987 5.69553 5.46706 5.42035 5.37563C5.10928 5.25877 4.77606 5.20163 4.44067 5.20763L3.73172 5.20763L3.73172 4.07963L4.44067 4.07963C4.71252 4.08272 4.98291 4.04212 5.2399 3.95963C5.4805 3.87963 5.66956 3.74763 5.80704 3.56363C5.95312 3.37963 6.02618 3.14363 6.02618 2.85563C6.02618 2.43963 5.8887 2.12763 5.61371 1.91963C5.34732 1.71163 4.9649 1.60763 4.46649 1.60763C3.95087 1.60763 3.55984 1.70763 3.29346 1.90763C3.03564 2.10763 2.87668 2.38363 2.81653 2.73563L1.42438 2.65163C1.51892 1.98763 1.82397 1.45163 2.3396 1.04363C2.8638 0.635625 3.57706 0.431625 4.47937 0.431625C5.0809 0.431625 5.6008 0.527625 6.03906 0.719625C6.48593 0.903625 6.82968 1.16763 7.07028 1.51163C7.31091 1.85563 7.43121 2.26763 7.43121 2.74763C7.43121 3.27563 7.25073 3.70363 6.88983 4.03163C6.53748 4.35163 6.02188 4.57163 5.34299 4.69163L5.34299 4.46363C6.08203 4.54363 6.66641 4.79163 7.09607 5.20763C7.52576 5.61563 7.74057 6.13163 7.74057 6.75563C7.74057 7.29963 7.59879 7.76363 7.31519 8.14763C7.04019 8.53163 6.64923 8.82763 6.14221 9.03563C5.6438 9.23563 5.06802 9.33563 4.41492 9.33563ZM14.1288 9.33563C13.5186 9.33563 12.9858 9.23563 12.5304 9.03563C12.1012 8.84172 11.7327 8.54833 11.4605 8.18363C11.2027 7.81563 11.0523 7.39563 11.0093 6.92363L12.4144 6.83963C12.4745 7.27963 12.655 7.61163 12.9557 7.83563C13.2565 8.05163 13.6475 8.15963 14.1288 8.15963C14.6701 8.15963 15.0998 8.00763 15.4178 7.70363C15.7357 7.39163 15.8947 6.95163 15.8947 6.38363C15.8947 6.01563 15.8217 5.69563 15.6756 5.42363C15.5525 5.16636 15.3448 4.95209 15.0826 4.81163C14.8248 4.66763 14.5154 4.59563 14.1545 4.59563C13.8194 4.59563 13.5014 4.67563 13.2007 4.83563C12.9085 4.98763 12.7022 5.19963 12.5819 5.47163L11.1511 5.44763L11.7441 0.623625L16.7841 0.623626L16.7841 1.81063L12.9171 1.81063L12.5432 4.75063L12.2726 4.57063C12.4027 4.33901 12.5825 4.13478 12.8011 3.97063C13.0218 3.81197 13.2704 3.69016 13.5358 3.61063C13.801 3.52419 14.0798 3.47958 14.3608 3.47863C14.9537 3.47863 15.4694 3.60263 15.9076 3.85063C16.3509 4.09503 16.709 4.45338 16.9388 4.88263C17.1794 5.32263 17.2997 5.82663 17.2997 6.39463C17.2997 6.96263 17.1665 7.47063 16.9001 7.91863C16.6338 8.36663 16.2599 8.71463 15.7787 8.96263C15.3061 9.21063 14.7561 9.33463 14.1288 9.33463L14.1288 9.33563ZM23.7921 9.33563C23.182 9.33563 22.6492 9.23563 22.1937 9.03563C21.7645 8.84172 21.3961 8.54833 21.1238 8.18363C20.866 7.81563 20.7156 7.39563 20.6727 6.92363L22.0777 6.83963C22.1379 7.27963 22.3183 7.61163 22.6191 7.83563C22.9199 8.05163 23.3109 8.15963 23.7921 8.15963C24.3335 8.15963 24.7632 8.00763 25.0811 7.70363C25.3991 7.39163 25.5581 6.95163 25.5581 6.38363C25.5581 6.01563 25.485 5.69563 25.339 5.42363C25.2158 5.16636 25.0082 4.95209 24.746 4.81163C24.4882 4.66763 24.1788 4.59563 23.8179 4.59563C23.4828 4.59563 23.1648 4.67563 22.864 4.83563C22.5718 4.98763 22.3656 5.19963 22.2453 5.47163L20.8145 5.44763L21.4074 0.623626L26.4475 0.623626L26.4475 1.81063L22.5804 1.81063L22.2066 4.75063L21.9359 4.57063C22.066 4.33901 22.2459 4.13478 22.4644 3.97063C22.6851 3.81197 22.9337 3.69016 23.1992 3.61063C23.4644 3.52419 23.7432 3.47958 24.0241 3.47863C24.6171 3.47863 25.1327 3.60263 25.571 3.85063C26.0143 4.09503 26.3723 4.45338 26.6022 4.88263C26.8428 5.32263 26.9631 5.82663 26.9631 6.39463C26.9631 6.96263 26.8299 7.47063 26.5635 7.91863C26.2971 8.36663 25.9233 8.71463 25.442 8.96263C24.9694 9.21063 24.4194 9.33463 23.7921 9.33463L23.7921 9.33563ZM358.421 9.33564C357.811 9.33564 357.278 9.23564 356.822 9.03564C356.393 8.84174 356.025 8.54834 355.753 8.18364C355.495 7.81564 355.344 7.39564 355.301 6.92364L356.705 6.83964C356.765 7.27964 356.946 7.61164 357.247 7.83564C357.547 8.05164 357.938 8.15964 358.42 8.15964C358.961 8.15964 359.391 8.00764 359.709 7.70364C360.027 7.39164 360.186 6.95164 360.186 6.38364C360.186 6.01564 360.113 5.69564 359.967 5.42364C359.843 5.16638 359.636 4.9521 359.374 4.81164C359.116 4.66764 358.806 4.59564 358.446 4.59564C358.11 4.59564 357.792 4.67564 357.492 4.83564C357.199 4.98764 356.993 5.19964 356.873 5.47164L355.442 5.44764L356.035 0.62364L361.076 0.623641L361.076 1.81064L357.209 1.81064L356.835 4.75064L356.565 4.57064C356.695 4.33902 356.875 4.13479 357.093 3.97064C357.314 3.81198 357.562 3.69017 357.828 3.61064C358.093 3.52421 358.372 3.47959 358.653 3.47864C359.246 3.47864 359.761 3.60264 360.2 3.85064C360.643 4.09505 361.001 4.4534 361.231 4.88264C361.471 5.32264 361.592 5.82664 361.592 6.39464C361.592 6.96264 361.459 7.47064 361.192 7.91864C360.926 8.36664 360.552 8.71464 360.071 8.96264C359.598 9.21064 359.048 9.33464 358.421 9.33464L358.421 9.33564ZM184.923 9.14364L184.923 0.623633L186.573 0.623633L189.576 7.35564L189.576 0.623633L190.904 0.623633L190.904 9.14364L189.254 9.14364L186.251 2.41163L186.251 9.14364L184.923 9.14364Z" fill="#050505"/>
<path d="M14.1504 48L14.1504 24" stroke="#050505"/>
<path d="M357.703 48L357.703 24" stroke="#050505"/>
<path opacity="0.5" d="M24.8933 48L24.8933 44M35.6351 48L35.6351 44M46.377 48L46.377 44" stroke="#050505"/>
<path opacity="0.5" d="M346.962 48L346.962 44M336.22 48L336.22 44M325.479 48L325.479 44" stroke="#050505"/>
<path d="M57.1172 48L57.1172 36" stroke="#050505"/>
<path d="M314.736 48L314.736 36" stroke="#050505"/>
<path opacity="0.5" d="M67.8601 48L67.8601 44M78.6019 48L78.6019 44M89.3437 48L89.3438 44" stroke="#050505"/>
<path opacity="0.5" d="M303.993 48L303.993 44M293.252 48L293.252 44M282.51 48L282.51 44" stroke="#050505"/>
<path d="M100.086 48L100.086 24" stroke="#050505"/>
<path d="M271.768 48L271.768 24" stroke="#050505"/>
<path opacity="0.5" d="M110.827 48L110.827 44M121.569 48L121.569 44M132.311 48L132.311 44" stroke="#050505"/>
<path d="M143.053 48L143.053 36" stroke="#050505"/>
<path opacity="0.5" d="M153.794 48L153.794 44M164.536 48L164.536 44M175.277 48L175.277 44" stroke="#050505"/>
<path d="M186.021 48L186.021 24" stroke="#050505"/>
<path opacity="0.5" d="M196.762 48L196.762 44M207.504 48L207.504 44M218.246 48L218.246 44" stroke="#050505"/>
<path d="M228.988 48L228.988 36" stroke="#050505"/>
<path opacity="0.5" d="M239.729 48L239.729 44M250.471 48L250.471 44M261.213 48L261.213 44" stroke="#050505"/>
</g>
</svg>
